# xmcd
#
# Track frame offsets:
#	183
#	9015
#	19703
#	28160
#	39760
#	51000
#	64618
#	73200
#	83003
#	91273
#	105805
#	118148
#	129125
#	141560
#	152218
#	162055
#
# Disc length: 2321 seconds
#
# Revision: 0
# Processed by: cddbd v1.4PL0 Copyright (c) Steve Scherf et al.
# Submitted via: dBpowerAMP V4.0
#
DISCID=bc090f10
DTITLE=Joni James - Let There Be Love
DYEAR=1900
DGENRE=Easy Listening
TTITLE0=Let There Be Love
TTITLE1=You're My Everything
TTITLE2=You're Fooling Someone
TTITLE3=Am I In Love ?
TTITLE4=My Love, My Love
TTITLE5=Purple Shades
TTITLE6=Almost Always
TTITLE7=I'll Be Seeing You
TTITLE8=When We Come Of Age
TTITLE9=These Foolish Things
TTITLE10=It's The TAlk Of The Town
TTITLE11=Too Late Now
TTITLE12=In Love In Vain
TTITLE13=That Old Feeling
TTITLE14=I'm Through With Love
TTITLE15=Little Girl Blue
EXTD=
EXTT0=
EXTT1=
EXTT2=
EXTT3=
EXTT4=
EXTT5=
EXTT6=
EXTT7=
EXTT8=
EXTT9=
EXTT10=
EXTT11=
EXTT12=
EXTT13=
EXTT14=
EXTT15=
PLAYORDER=
